<?xml version="1.0" encoding="UTF-8"?>
<svg xmlns="http://www.w3.org/2000/svg" xmlns:xlink="http://www.w3.org/1999/xlink" width="2529px" height="900px" viewBox="0 0 2529 900" version="1.1">
<g id="surface1">
<path style=" stroke:none;fill-rule:nonzero;fill:rgb(69.411765%,40%,98.039216%);fill-opacity:1;" d="M 332.117188 447.707031 L 367.355469 505.308594 L 333.726562 505.308594 L 304.605469 455.429688 L 295.757812 505.308594 L 268.246094 505.308594 L 288.195312 392.359375 L 315.707031 392.359375 L 307.019531 441.914062 L 353.515625 392.359375 L 385.695312 392.359375 Z M 427.640625 416.816406 L 432.148438 391.234375 L 476.714844 391.234375 L 456.601562 505.308594 L 427.964844 505.308594 L 443.570312 416.816406 Z M 485.878906 446.742188 C 488.988281 428.933594 494.996094 414.832031 503.898438 404.425781 C 512.910156 393.914062 525.351562 388.660156 541.226562 388.660156 C 553.988281 388.660156 563.320312 392.144531 569.222656 399.117188 C 575.226562 405.984375 578.230469 415.582031 578.230469 427.917969 C 578.230469 432.957031 577.585938 439.234375 576.300781 446.742188 C 573.191406 464.546875 567.128906 478.707031 558.121094 489.21875 C 549.109375 499.625 536.667969 504.824219 520.792969 504.824219 C 508.03125 504.824219 498.699219 501.394531 492.796875 494.527344 C 487.007812 487.554688 484.109375 477.902344 484.109375 465.566406 C 484.109375 459.882812 484.699219 453.609375 485.878906 446.742188 Z M 549.109375 446.742188 C 550.289062 440.09375 550.878906 434.886719 550.878906 431.136719 C 550.878906 425.773438 549.804688 421.640625 547.660156 418.746094 C 545.515625 415.851562 541.871094 414.402344 536.722656 414.402344 C 529.320312 414.402344 523.902344 417.246094 520.472656 422.929688 C 517.144531 428.613281 514.625 436.554688 512.910156 446.742188 C 511.730469 453.390625 511.140625 458.59375 511.140625 462.347656 C 511.140625 467.710938 512.214844 471.839844 514.355469 474.738281 C 516.5 477.632812 520.148438 479.082031 525.296875 479.082031 C 532.699219 479.082031 538.0625 476.238281 541.386719 470.554688 C 544.820312 464.871094 547.394531 456.929688 549.109375 446.742188 Z M 549.109375 446.742188 "/>
<path style="fill:none;stroke-width:12;stroke-linecap:butt;stroke-linejoin:miter;stroke:rgb(69.411765%,40%,98.039216%);stroke-opacity:1;stroke-miterlimit:4;" d="M 16.351167 87.798568 L 158.847012 9.316701 C 164.855751 6.007066 172.143309 6.00862 178.150495 9.319809 L 320.655663 87.88092 C 327.037326 91.398767 330.999645 98.109714 330.999645 105.395573 L 330.999645 251.746719 C 330.999645 259.001502 327.069957 265.689141 320.730248 269.219418 L 178.231295 348.580747 C 172.180602 351.949427 164.818459 351.949427 158.76932 348.580747 L 16.268813 269.219418 C 9.929104 265.689141 5.999416 259.001502 5.999416 251.746719 L 5.999416 105.316328 C 5.999416 98.027361 9.966396 91.314861 16.351167 87.798568 Z M 16.351167 87.798568 " transform="matrix(2.513917,0,0,2.513966,0,0)"/>
<path style="fill:none;stroke-width:12;stroke-linecap:round;stroke-linejoin:miter;stroke:rgb(69.411765%,40%,98.039216%);stroke-opacity:1;stroke-miterlimit:4;" d="M 168.49953 90.999436 L 167.197404 100.906589 C 166.457771 106.517431 168.824285 112.087873 173.377067 115.451892 C 176.054351 117.431458 179.297236 118.500486 182.628692 118.500486 L 245.471061 118.500486 C 249.714626 118.500486 253.846314 117.151771 257.271 114.648568 L 303.999941 80.500278 " transform="matrix(2.513917,0,0,2.513966,0,0)"/>
<path style="fill:none;stroke-width:12;stroke-linecap:round;stroke-linejoin:miter;stroke:rgb(69.411765%,40%,98.039216%);stroke-opacity:1;stroke-miterlimit:4;" d="M 213.999376 29.999592 L 190.556436 29.999592 C 186.606548 29.999592 182.746784 31.168064 179.461945 33.35895 L 88.557038 93.962569 C 83.836441 97.109054 81.000664 102.407578 81.000664 108.083681 C 81.000664 116.825469 87.643374 124.139297 96.34649 124.975252 L 100.187608 125.345061 C 104.603651 125.769253 109.035232 124.71421 112.786227 122.343082 L 164.605582 89.593229 C 167.803405 87.573264 171.507785 86.499575 175.289856 86.499575 L 220.000346 86.499575 " transform="matrix(2.513917,0,0,2.513966,0,0)"/>
<path style="fill:none;stroke-width:12;stroke-linecap:round;stroke-linejoin:miter;stroke:rgb(69.411765%,40%,98.039216%);stroke-opacity:1;stroke-miterlimit:4;" d="M 168.49953 267.000564 L 169.803211 257.093411 C 170.54129 251.482569 168.174776 245.912127 163.623548 242.548108 C 160.94471 240.568542 157.703378 239.499514 154.371923 239.499514 L 91.529554 239.499514 C 87.285989 239.499514 83.154301 240.848229 79.728061 243.351432 L 33.000673 277.499722 " transform="matrix(2.513917,0,0,2.513966,0,0)"/>
<path style="fill:none;stroke-width:12;stroke-linecap:round;stroke-linejoin:miter;stroke:rgb(69.411765%,40%,98.039216%);stroke-opacity:1;stroke-miterlimit:4;" d="M 122.999685 328.000408 L 146.444179 328.000408 C 150.392512 328.000408 154.252277 326.830382 157.53867 324.64105 L 248.443576 264.037431 C 253.164174 260.890946 255.999951 255.592422 255.999951 249.916319 C 255.999951 241.174531 249.35724 233.860703 240.652571 233.024748 L 236.813007 232.654939 C 232.396964 232.230747 227.965383 233.28579 224.214388 235.656918 L 172.395033 268.406771 C 169.197209 270.426736 165.491276 271.500425 161.710758 271.500425 L 117.000269 271.500425 " transform="matrix(2.513917,0,0,2.513966,0,0)"/>
<path style=" stroke:none;fill-rule:nonzero;fill:rgb(69.411765%,40%,98.039216%);fill-opacity:1;" d="M 1032.09375 451.46875 L 1111.25 563.128906 L 1063.304688 563.128906 L 994.445312 463.050781 L 976.746094 563.128906 L 940.0625 563.128906 L 979.644531 339.484375 L 1016.324219 339.484375 L 998.304688 441.492188 L 1103.207031 339.484375 L 1149.222656 339.484375 Z M 1246.660156 565.382812 C 1227.785156 565.382812 1211.15625 561.410156 1196.785156 553.476562 C 1182.414062 545.539062 1171.257812 534.382812 1163.320312 520.007812 C 1155.382812 505.636719 1151.414062 489.332031 1151.414062 471.097656 C 1151.414062 445.566406 1157.097656 422.617188 1168.46875 402.234375 C 1180.050781 381.640625 1195.929688 365.550781 1216.09375 353.964844 C 1236.472656 342.382812 1259.210938 336.589844 1284.308594 336.589844 C 1303.402344 336.589844 1320.136719 340.558594 1334.507812 348.496094 C 1348.878906 356.433594 1360.035156 367.589844 1367.972656 381.960938 C 1375.910156 396.121094 1379.878906 412.316406 1379.878906 430.550781 C 1379.878906 456.082031 1374.085938 479.140625 1362.503906 499.734375 C 1351.132812 520.332031 1335.257812 536.421875 1314.878906 548.003906 C 1294.714844 559.589844 1271.972656 565.382812 1246.660156 565.382812 Z M 1251.808594 532.238281 C 1269.398438 532.238281 1284.953125 527.730469 1298.46875 518.722656 C 1312.195312 509.710938 1322.816406 497.699219 1330.324219 482.679688 C 1338.046875 467.449219 1341.910156 450.933594 1341.910156 433.125 C 1341.910156 413.605469 1336.332031 398.265625 1325.175781 387.109375 C 1314.234375 375.738281 1298.898438 370.054688 1279.160156 370.054688 C 1261.570312 370.054688 1245.910156 374.5625 1232.179688 383.570312 C 1218.667969 392.367188 1208.15625 404.273438 1200.648438 419.289062 C 1193.136719 434.304688 1189.382812 450.824219 1189.382812 468.84375 C 1189.382812 488.367188 1194.855469 503.8125 1205.796875 515.183594 C 1216.949219 526.554688 1232.289062 532.238281 1251.808594 532.238281 Z M 1580.085938 406.097656 C 1578.152344 417.464844 1573.539062 428.191406 1566.246094 438.273438 C 1559.167969 448.359375 1549.195312 456.617188 1536.320312 463.050781 C 1523.449219 469.273438 1507.792969 472.382812 1489.34375 472.382812 L 1448.796875 472.382812 L 1432.707031 563.128906 L 1396.027344 563.128906 L 1435.605469 339.484375 L 1512.832031 339.484375 C 1535.355469 339.484375 1552.410156 344.527344 1563.996094 354.609375 C 1575.578125 364.476562 1581.371094 377.457031 1581.371094 393.546875 C 1581.371094 396.335938 1580.941406 400.519531 1580.085938 406.097656 Z M 1494.492188 443.746094 C 1508.433594 443.746094 1519.375 440.417969 1527.3125 433.769531 C 1535.464844 427.121094 1540.503906 417.894531 1542.4375 406.097656 C 1543.078125 402.878906 1543.402344 399.769531 1543.402344 396.765625 C 1543.402344 387.753906 1540.398438 380.78125 1534.390625 375.847656 C 1528.597656 370.699219 1519.699219 368.125 1507.683594 368.125 L 1467.140625 368.125 L 1453.945312 443.746094 Z M 1658.511719 367.804688 L 1646.605469 435.699219 L 1723.832031 435.699219 L 1719.007812 464.019531 L 1641.777344 464.019531 L 1629.230469 534.488281 L 1716.109375 534.488281 L 1710.960938 563.128906 L 1587.398438 563.128906 L 1626.976562 339.164062 L 1750.539062 339.164062 L 1745.390625 367.804688 Z M 1872.949219 339.484375 C 1895.476562 339.484375 1912.53125 344.527344 1924.113281 354.609375 C 1935.699219 364.695312 1941.488281 377.777344 1941.488281 393.867188 C 1941.488281 396.65625 1941.058594 400.839844 1940.203125 406.417969 C 1937.628906 420.789062 1930.980469 433.984375 1920.253906 445.996094 C 1909.742188 458.011719 1895.367188 466.164062 1877.132812 470.453125 L 1916.070312 563.128906 L 1872.308594 563.128906 L 1836.910156 473.671875 L 1808.59375 473.671875 L 1792.828125 563.128906 L 1756.144531 563.128906 L 1795.722656 339.484375 Z M 1902.554688 406.417969 C 1903.199219 403.199219 1903.519531 400.089844 1903.519531 397.085938 C 1903.519531 387.863281 1900.515625 380.78125 1894.511719 375.847656 C 1888.71875 370.699219 1879.816406 368.125 1867.800781 368.125 L 1827.257812 368.125 L 1813.742188 444.710938 L 1854.289062 444.710938 C 1868.015625 444.710938 1878.957031 441.277344 1887.109375 434.414062 C 1895.476562 427.546875 1900.625 418.214844 1902.554688 406.417969 Z M 2102.328125 517.433594 L 2008.691406 517.433594 L 1984.554688 563.128906 L 1946.265625 563.128906 L 2065.964844 339.164062 L 2108.441406 339.164062 L 2148.984375 563.128906 L 2110.371094 563.128906 Z M 2097.5 488.796875 L 2079.160156 383.570312 L 2023.8125 488.796875 Z M 2264.914062 565.382812 C 2251.183594 565.382812 2238.847656 563.238281 2227.910156 558.945312 C 2216.96875 554.441406 2208.28125 548.003906 2201.84375 539.636719 C 2195.410156 531.058594 2192.191406 520.972656 2192.191406 509.390625 C 2192.191406 507.890625 2192.402344 505.207031 2192.835938 501.34375 L 2229.195312 501.34375 C 2228.339844 511.210938 2231.234375 519.472656 2237.882812 526.121094 C 2244.53125 532.558594 2254.082031 535.777344 2266.523438 535.777344 C 2279.824219 535.777344 2290.226562 533.09375 2297.734375 527.730469 C 2305.242188 522.152344 2308.996094 514.214844 2308.996094 503.917969 C 2308.996094 497.699219 2307.066406 492.441406 2303.203125 488.152344 C 2299.558594 483.648438 2294.839844 479.894531 2289.046875 476.890625 C 2283.46875 473.886719 2275.640625 470.34375 2265.554688 466.269531 C 2252.253906 460.691406 2241.636719 455.652344 2233.699219 451.144531 C 2225.765625 446.640625 2218.898438 440.417969 2213.105469 432.484375 C 2207.527344 424.546875 2204.738281 414.570312 2204.738281 402.554688 C 2204.738281 389.253906 2208.171875 377.671875 2215.035156 367.804688 C 2221.902344 357.71875 2231.339844 349.996094 2243.355469 344.632812 C 2255.582031 339.273438 2269.308594 336.589844 2284.542969 336.589844 C 2299.773438 336.589844 2312.859375 339.164062 2323.800781 344.3125 C 2334.953125 349.246094 2343.320312 356.328125 2348.898438 365.550781 C 2354.691406 374.5625 2357.265625 385.179688 2356.621094 397.40625 L 2318.007812 397.40625 C 2318.863281 388.613281 2316.183594 381.320312 2309.960938 375.527344 C 2303.742188 369.519531 2294.730469 366.515625 2282.933594 366.515625 C 2270.492188 366.515625 2260.515625 369.414062 2253.007812 375.203125 C 2245.714844 380.78125 2242.066406 388.398438 2242.066406 398.050781 C 2242.066406 404.058594 2243.890625 409.3125 2247.535156 413.820312 C 2251.398438 418.109375 2256.226562 421.863281 2262.015625 425.082031 C 2267.808594 428.085938 2275.640625 431.730469 2285.507812 436.023438 C 2298.808594 442.027344 2309.425781 447.394531 2317.363281 452.113281 C 2325.515625 456.832031 2332.488281 463.265625 2338.277344 471.417969 C 2344.070312 479.355469 2346.96875 489.226562 2346.96875 501.023438 C 2346.96875 513.464844 2343.535156 524.621094 2336.671875 534.488281 C 2329.804688 544.144531 2320.152344 551.757812 2307.710938 557.335938 C 2295.269531 562.699219 2281.003906 565.382812 2264.914062 565.382812 Z M 2452.714844 339.484375 L 2413.136719 563.128906 L 2376.453125 563.128906 L 2416.03125 339.484375 Z M 2452.714844 339.484375 "/>
</g>
</svg>
