<svg width="2380" height="1275" viewBox="0 0 2380 775" fill="none" xmlns="http://www.w3.org/2000/svg">
<circle cx="421" cy="420" r="322" fill="#316DF3"/>
<circle cx="606" cy="296" r="205" fill="#FAB45C" fill-opacity="0.9"/>
<circle cx="563" cy="553" r="188" fill="#FC818D" fill-opacity="0.9"/>
<path d="M569 338.5C569 480.713 453.713 596 311.5 596C169.287 596 54 480.713 54 338.5C54 196.287 169.287 81 311.5 81C453.713 81 569 196.287 569 338.5Z" fill="#B166FA" fill-opacity="0.9"/>
<path d="M375.991 419.749L393.328 448.089H376.783L362.454 423.549L358.1 448.089H344.563L354.379 392.517H367.916L363.641 416.899L386.52 392.517H402.352L375.991 419.749ZM422.991 404.55L425.207 391.963H447.136L437.24 448.089H423.149L430.828 404.55H422.991ZM451.646 419.274C453.177 410.513 456.132 403.573 460.512 398.454C464.945 393.282 471.067 390.696 478.878 390.696C485.158 390.696 489.75 392.411 492.653 395.842C495.608 399.219 497.086 403.943 497.086 410.012C497.086 412.492 496.769 415.58 496.136 419.274C494.605 428.035 491.623 435.001 487.19 440.173C482.757 445.292 476.635 447.852 468.824 447.852C462.544 447.852 457.953 446.163 455.05 442.785C452.2 439.355 450.775 434.605 450.775 428.536C450.775 425.739 451.066 422.651 451.646 419.274ZM482.757 419.274C483.338 416.002 483.628 413.442 483.628 411.595C483.628 408.956 483.1 406.924 482.045 405.499C480.989 404.075 479.195 403.362 476.662 403.362C473.02 403.362 470.355 404.761 468.666 407.558C467.03 410.355 465.79 414.26 464.945 419.274C464.365 422.546 464.075 425.106 464.075 426.953C464.075 429.591 464.602 431.623 465.658 433.048C466.713 434.473 468.508 435.186 471.041 435.186C474.683 435.186 477.321 433.787 478.957 430.99C480.646 428.193 481.913 424.288 482.757 419.274Z" fill="white"/>
<path d="M232.804 307.653L409.06 210.576C416.493 206.482 425.506 206.484 432.938 210.581L609.205 307.754C617.098 312.106 622 320.406 622 329.419V510.443C622 519.418 617.139 527.689 609.298 532.055L433.037 630.22C425.553 634.387 416.447 634.387 408.963 630.22L232.702 532.055C224.861 527.689 220 519.418 220 510.443V329.322C220 320.305 224.906 312.003 232.804 307.653Z" stroke="white" stroke-width="14.8431"/>
<path d="M421 311.612L419.388 323.865C418.475 330.806 421.402 337.696 427.032 341.858V341.858C430.345 344.306 434.355 345.628 438.475 345.628H516.207C521.455 345.628 526.567 343.959 530.803 340.863L588.603 298.625" stroke="white" stroke-width="14.8431" stroke-linecap="round"/>
<path d="M477.28 236.16H448.281C443.397 236.16 438.622 237.606 434.558 240.315L322.117 315.276C316.277 319.169 312.769 325.724 312.769 332.742V332.742C312.769 343.557 320.986 352.602 331.752 353.638L336.502 354.094C341.964 354.62 347.447 353.313 352.086 350.382L416.182 309.873C420.137 307.373 424.72 306.046 429.399 306.046H484.701" stroke="white" stroke-width="14.8431" stroke-linecap="round"/>
<path d="M421 529.311L422.612 517.058C423.525 510.117 420.598 503.227 414.968 499.065V499.065C411.655 496.617 407.645 495.295 403.525 495.295H325.793C320.545 495.295 315.433 496.964 311.197 500.06L253.397 542.298" stroke="white" stroke-width="14.8431" stroke-linecap="round"/>
<path d="M364.72 604.763H393.719C398.603 604.763 403.378 603.317 407.442 600.608L519.883 525.647C525.723 521.754 529.231 515.199 529.231 508.181V508.181C529.231 497.366 521.014 488.321 510.248 487.285L505.498 486.829C500.036 486.303 494.553 487.609 489.914 490.541L425.818 531.05C421.863 533.55 417.28 534.877 412.601 534.877H357.299" stroke="white" stroke-width="14.8431" stroke-linecap="round"/>
<circle cx="19.5" cy="400.5" r="19.5" fill="#8E59D1"/>
<circle cx="506.5" cy="34.5" r="34.5" fill="#FC818D"/>
<circle cx="127.5" cy="696.5" r="28.5" fill="#FAB45C"/>
<circle cx="890" cy="341" r="45" fill="#316DF3"/>
<circle cx="788.5" cy="489.5" r="22.5" fill="#FC818D"/>
<path d="M1273.36 540.689H1228.67L1147.8 360.182L1121.99 385.791C1109.2 398.44 1102.56 405.456 1102.08 406.838C1101.94 407.529 1101.87 408.221 1101.87 408.912C1101.87 409.396 1101.91 409.914 1101.98 410.467C1102.05 411.02 1102.08 411.573 1102.08 412.126L1101.98 524.308C1101.29 528.939 1099.25 532.671 1095.86 535.505C1092.47 538.339 1088.5 539.86 1083.94 540.067H1042.26C1046.4 539.445 1050.21 537.924 1053.66 535.505C1057.12 533.086 1059.47 529.837 1060.71 525.759C1061.33 521.474 1061.65 489.16 1061.65 428.818C1061.65 383.752 1061.61 344.077 1061.54 309.794L1061.44 270.499C1062.96 270.637 1064.48 270.706 1066 270.706C1072.08 270.706 1078.37 269.29 1084.87 266.456C1091.44 263.622 1097.17 259.233 1102.08 253.288V400.099C1104.36 397.887 1109.3 392.945 1116.91 385.273C1173.86 328.594 1217.96 284.289 1249.2 252.355L1252.11 255.362C1236.14 271.052 1220.28 286.915 1204.52 302.951L1178.49 329.286L1273.36 540.689ZM1657.49 405.179C1667.24 421.63 1671.42 439.394 1670.04 458.471C1668.45 477.133 1661.75 493.791 1649.93 508.445C1640.46 519.711 1629.09 528.144 1615.81 533.742C1602.61 539.341 1588.79 541.691 1574.34 540.793C1572.61 540.654 1570.92 540.482 1569.26 540.274C1566.43 539.929 1563.59 539.445 1560.76 538.823C1557.24 537.993 1553.75 536.956 1550.29 535.712C1543.79 533.362 1537.64 530.286 1531.83 526.485V616.997C1531.83 620.384 1532.49 623.218 1533.8 625.499C1535.12 627.849 1536.71 629.75 1538.57 631.202C1540.51 632.653 1542.41 633.759 1544.28 634.519C1546.14 635.28 1547.73 635.798 1549.04 636.074C1550.36 636.351 1551.01 636.489 1551.01 636.489H1531.83H1509.34C1508.44 636.489 1507.54 636.42 1506.64 636.282C1498.07 634.485 1492.99 629.301 1491.4 620.73C1491.26 619.97 1491.19 619.175 1491.19 618.345V610.777H1491.09V416.999C1505.05 408.704 1518.63 399.788 1531.83 390.249V505.023C1531.83 505.092 1531.83 505.161 1531.83 505.23C1531.83 505.369 1531.83 505.507 1531.83 505.645V521.404C1541.37 528.109 1552.02 532.706 1563.77 535.194C1565.36 535.54 1567.02 535.816 1568.74 536.023C1570.61 535.263 1572.48 534.434 1574.34 533.535C1590.59 525.033 1603.17 512.73 1612.08 496.625C1621.41 479.207 1625.46 460.717 1624.21 441.156C1623.04 421.595 1616.71 403.797 1605.24 387.761C1598.88 379.19 1591.24 371.967 1582.33 366.092C1579.63 366.092 1576.97 366.196 1574.34 366.403C1566.46 366.956 1558.83 368.58 1551.43 371.276C1544.79 373.695 1538.57 376.909 1532.77 380.918C1532.7 380.918 1532.28 381.16 1531.52 381.644C1529.93 382.819 1527.24 384.685 1523.44 387.243C1513.41 394.224 1503.18 400.894 1492.75 407.253C1492.26 407.529 1491.78 407.806 1491.3 408.082C1491.3 408.082 1491.3 408.117 1491.3 408.186C1491.3 408.186 1491.26 408.186 1491.19 408.186C1491.19 408.186 1491.16 408.186 1491.09 408.186C1484.73 412.057 1478.3 415.789 1471.8 419.383C1463.58 423.945 1455.04 428.265 1446.19 432.343C1448.96 444.37 1449.24 456.605 1447.02 469.046C1443.64 487.156 1435.45 502.742 1422.45 515.806C1418.51 519.676 1414.26 523.132 1409.7 526.174C1405.14 529.215 1400.33 531.772 1395.29 533.846C1388.31 536.749 1381.08 538.684 1373.62 539.652C1355.37 541.864 1338.02 538.788 1321.57 530.425C1304.43 521.439 1291.26 508.41 1282.07 491.337C1279.86 487.19 1277.96 482.905 1276.37 478.481C1270.22 460.648 1269.42 442.746 1273.98 424.775C1278.54 406.735 1288.01 391.528 1302.39 379.156C1317.11 367.198 1333.98 360.632 1352.99 359.456C1371.37 358.765 1388.44 363.224 1404.2 372.831C1414.43 379.259 1423.04 387.277 1430.02 396.885C1437.07 406.423 1442.15 416.93 1445.26 428.404C1457.15 422.805 1468.76 416.653 1480.1 409.949C1483.83 407.806 1487.49 405.629 1491.09 403.417V376.667C1491.09 376.667 1492.4 376.702 1495.03 376.771C1497.72 376.84 1501.14 376.46 1505.29 375.631C1509.44 374.801 1513.83 373.142 1518.46 370.654C1523.16 368.166 1527.62 364.399 1531.83 359.353V376.667C1541.3 370.377 1551.74 366.057 1563.15 363.707C1566.88 362.947 1570.61 362.463 1574.34 362.256C1574.62 362.187 1574.86 362.152 1575.07 362.152C1575.21 362.152 1575.35 362.152 1575.48 362.152C1578.18 362.014 1580.87 361.979 1583.57 362.048C1595.53 362.463 1606.97 365.124 1617.89 370.032C1634.62 377.773 1647.82 389.489 1657.49 405.179ZM1396.01 430.685C1385.65 411.677 1374.03 396.781 1361.18 385.999C1348.39 375.216 1336.67 370.239 1326.03 371.069C1324.23 372.244 1322.75 373.695 1321.57 375.423C1318.94 380.054 1317.94 385.065 1318.56 390.457C1319.53 399.581 1322.71 407.875 1328.1 415.34C1333.15 422.321 1339.3 427.989 1346.56 432.343C1353.88 436.629 1361.76 439.601 1370.2 441.26C1380.57 443.195 1391 443.403 1401.51 441.882C1399.78 438.15 1397.95 434.417 1396.01 430.685ZM1402.44 525.759C1410.25 519.815 1414.19 509.585 1414.26 495.07C1414.33 480.485 1410.63 464.07 1403.17 445.822C1395.15 447.135 1387.1 447.481 1379.01 446.859C1370.99 446.167 1363.04 444.267 1355.16 441.156C1347.08 437.977 1339.82 433.449 1333.39 427.574C1327.03 421.699 1322.09 414.752 1318.56 406.735C1316.77 402.656 1315.49 398.406 1314.73 393.982C1314.04 389.489 1314.14 385.065 1315.04 380.711C1315.59 378.153 1316.56 375.769 1317.94 373.557C1317.87 373.626 1317.8 373.695 1317.74 373.764C1317.6 373.833 1317.46 373.903 1317.32 373.972H1317.22C1310.86 378.05 1306.81 384.996 1305.09 394.811C1303.43 404.557 1304.05 415.997 1306.95 429.129C1309.86 442.193 1315.04 455.775 1322.5 469.876C1329.83 483.492 1337.95 495.104 1346.87 504.712C1355.85 514.32 1364.77 521.266 1373.62 525.552C1382.47 529.768 1390.41 530.701 1397.46 528.351C1399.12 527.591 1400.75 526.727 1402.34 525.759C1402.34 525.759 1402.37 525.759 1402.44 525.759ZM1859.67 463.033H1859.77C1859.22 467.733 1858.32 472.364 1857.08 476.926C1852.45 493.653 1843.91 507.995 1831.47 519.953C1819.03 531.842 1804.06 538.961 1786.58 541.311C1770.06 542.832 1754.88 539.687 1741.06 531.876C1727.24 523.996 1716.28 512.972 1708.19 498.802C1700.87 485.6 1696.72 471.534 1695.75 456.605C1694.85 441.675 1697.24 427.229 1702.91 413.266C1708.57 399.581 1716.94 387.934 1728 378.326C1739.12 368.719 1752.08 362.705 1766.88 360.286C1783.88 358.074 1799.71 360.977 1814.36 368.995C1829.08 376.944 1840.52 388.418 1848.68 403.417C1848.68 403.417 1848.68 403.451 1848.68 403.52C1848.82 403.659 1848.92 403.797 1848.99 403.935C1849.34 404.557 1849.65 405.179 1849.92 405.801C1850.27 406.354 1850.51 406.769 1850.65 407.046C1824.66 420.662 1798.71 434.244 1772.79 447.792C1762.42 453.252 1752.02 458.713 1741.58 464.173C1745.66 472.329 1750.43 480.036 1755.89 487.294C1764.39 499.113 1774.79 508.894 1787.09 516.635C1792.28 519.884 1797.95 522.268 1804.1 523.789C1810.32 525.241 1816.4 524.791 1822.35 522.441C1824.83 520.506 1827.25 518.398 1829.6 516.117C1829.6 516.186 1829.6 516.221 1829.6 516.221C1829.6 516.221 1829.6 516.186 1829.6 516.117C1837.07 506.025 1839.45 491.683 1836.76 473.09C1845.95 473.228 1853.59 469.876 1859.67 463.033ZM1815.29 412.955C1813.77 411.089 1812.36 409.188 1811.04 407.253C1809.8 405.525 1808.52 403.831 1807.21 402.173C1804.37 398.647 1801.33 395.295 1798.08 392.116C1792.42 386.448 1786.16 381.54 1779.32 377.393C1774.62 374.628 1769.54 372.555 1764.08 371.172C1758.62 369.721 1753.19 369.686 1747.8 371.069C1742.89 372.658 1738.88 375.354 1735.77 379.156C1732.73 382.888 1730.52 387.139 1729.14 391.908C1726.1 403.313 1725.82 414.994 1728.31 426.952C1730.86 438.91 1734.67 450.073 1739.71 460.441C1748.42 455.879 1757.13 451.282 1765.84 446.651C1783.4 437.182 1801.13 427.954 1819.03 418.969C1818.54 418.001 1817.96 416.964 1817.26 415.858C1817.26 415.858 1817.23 415.858 1817.16 415.858C1817.09 415.72 1817.02 415.582 1816.95 415.444C1816.4 414.545 1815.85 413.716 1815.29 412.955ZM2004.51 367.751C2005.2 368.719 2005.72 369.617 2006.07 370.447C2006.48 371.276 2006.72 371.967 2006.79 372.52C2006.93 373.004 2007 373.246 2007 373.246C2003.89 372.071 2001.09 371.622 1998.6 371.898C1996.18 372.175 1994.11 372.797 1992.38 373.764C1990.65 374.663 1989.34 375.596 1988.44 376.564C1987.54 377.462 1987.09 377.912 1987.09 377.912C1983.29 374.11 1979.07 371.933 1974.44 371.38C1969.88 370.758 1965.6 370.93 1961.59 371.898C1957.65 372.866 1954.68 373.833 1952.67 374.801C1945.34 379.225 1938.43 384.167 1931.93 389.627C1929.38 391.701 1926.85 393.844 1924.37 396.055V409.949V521.301C1924.37 524.688 1925.02 527.556 1926.34 529.906C1927.65 532.187 1929.24 534.053 1931.11 535.505C1933.04 536.956 1934.94 538.062 1936.81 538.823C1938.67 539.583 1940.26 540.101 1941.58 540.378C1942.89 540.654 1943.55 540.793 1943.55 540.793H1924.37H1901.87C1900.9 540.793 1899.97 540.724 1899.07 540.585C1890.57 538.788 1885.49 533.604 1883.83 525.033C1883.76 524.273 1883.72 523.478 1883.72 522.649V376.46C1883.72 376.46 1884.73 376.529 1886.73 376.667C1888.73 376.736 1891.33 376.564 1894.51 376.149C1897.76 375.665 1901.35 374.697 1905.29 373.246C1911.92 370.965 1918.28 366.299 1924.37 359.249V390.56C1934.25 381.644 1944.96 374.075 1956.51 367.855C1962.31 364.744 1968.46 362.429 1974.96 360.908C1981.53 359.387 1987.92 359.56 1994.14 361.426C1997.74 362.532 2000.47 363.915 2002.33 365.574C2003.16 366.334 2003.89 367.06 2004.51 367.751ZM2127.79 521.612C2127.79 524.999 2128.41 527.867 2129.65 530.217C2130.97 532.498 2132.56 534.364 2134.42 535.816C2136.36 537.268 2138.26 538.373 2140.12 539.134C2142.06 539.894 2143.68 540.412 2145 540.689C2146.31 540.965 2146.97 541.104 2146.97 541.104H2127.79C2121.63 541.104 2115.48 541.104 2109.33 541.104C2108.92 541.104 2108.5 541.104 2108.09 541.104C2105.6 541.242 2103.11 541.035 2100.62 540.482C2094.68 538.823 2090.57 535.125 2088.28 529.388C2079.23 532.775 2069.9 535.609 2060.29 537.89C2050.75 540.171 2041.14 541.311 2031.47 541.311C2023.52 541.38 2016.02 539.963 2008.97 537.06C2001.92 534.088 1996.46 528.973 1992.59 521.716C1989.34 515.08 1987.75 507.961 1987.82 500.357C1987.89 492.685 1989.41 485.497 1992.38 478.792C1997.22 468.493 2004.3 460.268 2013.63 454.116C2022.97 447.895 2033.23 443.23 2044.43 440.119C2055.69 436.94 2066.51 434.659 2076.88 433.277C2076.95 433.277 2076.98 433.277 2076.98 433.277C2080.3 431.894 2083.69 430.685 2087.14 429.648C2087.14 428.611 2087.14 427.609 2087.14 426.641C2087.14 421.872 2087.07 417.137 2086.94 412.437C2086.87 411.815 2086.83 411.158 2086.83 410.467C2086.69 404.315 2086.14 398.164 2085.17 392.012C2084.55 387.865 2083.51 383.683 2082.06 379.467C2080.61 375.181 2078.4 371.518 2075.43 368.477C2071.63 365.021 2067.41 363.846 2062.78 364.952C2058.15 366.057 2054.24 368.442 2051.06 372.105C2046.78 377.289 2043.67 383.337 2041.73 390.249C2039.8 397.092 2038.62 403.831 2038.21 410.467C2033.58 410.536 2029.29 411.849 2025.35 414.407C2021.48 416.895 2018.02 419.764 2014.98 423.012C2013.67 411.193 2015.81 399.995 2021.41 389.42C2025.9 381.264 2031.95 374.594 2039.55 369.41C2047.23 364.226 2055.69 361.081 2064.96 359.975C2080.44 358.592 2094.33 362.601 2106.64 372.002C2107.74 373.039 2108.85 374.041 2109.95 375.008C2111.89 376.667 2113.72 378.499 2115.45 380.504C2118.49 384.236 2120.98 388.245 2122.91 392.53C2127.06 401.723 2128.68 411.296 2127.79 421.25C2127.79 425.881 2127.79 430.512 2127.79 435.143C2127.79 453.183 2127.79 471.223 2127.79 489.264C2127.79 500.046 2127.79 510.829 2127.79 521.612ZM2087.14 525.448C2087.21 525.448 2087.25 525.448 2087.25 525.448C2086.83 521.301 2086.73 517.085 2086.94 512.799C2087.07 510.933 2087.14 509.101 2087.14 507.304C2087.14 482.905 2087.14 458.471 2087.14 434.002C2076.91 437.182 2067.41 441.847 2058.63 447.999C2043.49 459.335 2035.3 474.438 2034.06 493.307C2033.58 501.74 2034.82 509.896 2037.79 517.776C2040.76 525.655 2046.4 531.289 2054.69 534.676C2065.75 532.395 2076.57 529.319 2087.14 525.448ZM2285.48 468.009C2292.19 476.166 2295.4 484.944 2295.13 494.344C2294.85 503.744 2291.22 512.35 2284.24 520.16C2276.77 528.04 2267.89 533.812 2257.59 537.475C2247.36 541.138 2236.68 542.935 2225.56 542.866C2214.5 542.797 2204.03 541.104 2194.14 537.786C2184.81 534.537 2176.48 529.561 2169.15 522.856C2161.83 516.082 2157.09 508.272 2154.95 499.424C2152.88 490.577 2154.98 481.315 2161.27 471.638C2164.87 473.643 2168.46 475.613 2172.06 477.548C2173.16 478.17 2174.27 478.792 2175.38 479.414C2172.75 489.298 2172.82 499.148 2175.58 508.963C2175.58 508.963 2175.62 509.032 2175.69 509.17C2175.76 509.447 2175.82 509.689 2175.89 509.896C2176.31 511.278 2177.28 513.421 2178.8 516.324C2180.32 519.158 2182.63 522.096 2185.74 525.137C2188.99 528.386 2193.1 531.289 2198.08 533.846C2203.13 536.404 2208.79 537.44 2215.08 536.956C2221.37 536.473 2228.11 533.224 2235.3 527.211C2239.59 522.994 2242.91 518.121 2245.26 512.592C2248.37 504.228 2249.33 495.588 2248.16 486.672C2247.05 477.755 2243.8 469.703 2238.41 462.514C2238.21 462.169 2237.96 461.858 2237.69 461.581C2234.02 457.641 2229.53 454.842 2224.21 453.183C2218.96 451.455 2213.53 450.107 2207.93 449.14C2202.33 448.241 2197.15 446.997 2192.38 445.407C2183.19 442.158 2175.13 436.974 2168.22 429.855C2161.31 422.667 2157.68 413.958 2157.33 403.728C2157.68 393.705 2161.1 385.204 2167.6 378.223C2174.1 371.172 2181.87 365.954 2190.93 362.567C2209.94 355.586 2228.91 355.724 2247.85 362.982C2254.69 365.746 2260.81 369.686 2266.2 374.801C2271.66 379.916 2275.6 385.86 2278.02 392.634C2280.44 399.339 2280.54 406.493 2278.33 414.096C2276.81 410.847 2274.56 407.599 2271.59 404.35C2268.69 401.101 2265.23 399.719 2261.22 400.203C2260.46 388.729 2257.28 379.328 2251.68 372.002C2251.68 372.002 2250.82 371.311 2249.09 369.928C2247.43 368.477 2245.19 367.025 2242.35 365.574C2239.52 364.122 2236.34 363.224 2232.81 362.878C2229.36 362.463 2225.76 363.189 2222.03 365.055C2218.37 366.921 2214.84 370.516 2211.46 375.838C2206.55 384.34 2204.13 393.705 2204.2 403.935C2204.27 414.165 2206.82 423.496 2211.87 431.929C2211.87 431.929 2211.91 431.929 2211.97 431.929C2212.18 432.343 2212.42 432.758 2212.7 433.173C2213.53 434.486 2216.23 436.352 2220.79 438.772C2225.42 441.122 2233.26 443.541 2244.32 446.029C2244.6 446.098 2244.91 446.202 2245.26 446.34C2245.67 446.409 2245.98 446.444 2246.19 446.444C2246.26 446.444 2246.29 446.444 2246.29 446.444C2253.69 448.034 2260.81 450.591 2267.65 454.116C2274.49 457.641 2280.44 462.272 2285.48 468.009ZM2358.89 522.027C2358.89 525.413 2359.55 528.282 2360.86 530.632C2362.17 532.913 2363.76 534.779 2365.63 536.231C2367.56 537.682 2369.46 538.788 2371.33 539.548C2373.2 540.309 2374.79 540.827 2376.1 541.104C2377.41 541.38 2378.07 541.518 2378.07 541.518C2375.86 541.518 2373.65 541.518 2371.43 541.518C2366.94 541.518 2362.45 541.518 2357.96 541.518C2354.85 541.518 2351.73 541.518 2348.62 541.518C2347.03 541.518 2345.48 541.518 2343.96 541.518C2343.06 541.518 2342.16 541.553 2341.26 541.622C2338.01 541.829 2334.83 541.622 2331.72 541C2327.37 539.756 2324.05 537.406 2321.77 533.95C2319.49 530.494 2318.32 526.588 2318.25 522.234C2318.25 519.4 2318.25 516.566 2318.25 513.732C2318.25 512.35 2318.25 510.933 2318.25 509.481C2318.25 492.685 2318.25 475.854 2318.25 458.989C2318.25 431.756 2318.25 404.523 2318.25 377.289C2326.06 377.981 2333.56 376.771 2340.74 373.661C2347.93 370.55 2353.98 365.988 2358.89 359.975C2358.89 364.399 2358.89 368.822 2358.89 373.246C2358.89 377.67 2358.89 382.093 2358.89 386.517C2358.89 390.941 2358.89 395.364 2358.89 399.788C2358.89 418.174 2358.89 436.56 2358.89 454.946C2358.89 464.899 2358.89 474.852 2358.89 484.805C2358.89 489.782 2358.89 494.759 2358.89 499.735C2358.89 507.2 2358.89 514.631 2358.89 522.027ZM2358.89 306.269C2358.89 300.739 2356.92 296.039 2352.98 292.168C2349.11 288.228 2344.3 286.155 2338.57 285.947C2332.9 286.086 2328.13 288.09 2324.26 291.961C2320.39 295.832 2318.38 300.601 2318.25 306.269C2318.38 312.006 2320.42 316.844 2324.36 320.784C2328.3 324.724 2333.04 326.694 2338.57 326.694C2344.1 326.694 2348.87 324.689 2352.88 320.68C2356.88 316.671 2358.89 311.867 2358.89 306.269Z" fill="#316DF3"/>
</svg>
